<?xml version="1.0" encoding="UTF-8"?>
<svg version="1.1" xmlns="http://www.w3.org/2000/svg" width="512" height="512">
<path d="M0 0 C0.81210937 0.73605469 1.62421875 1.47210938 2.4609375 2.23046875 C14.58638805 13.64828259 22.76634199 28.64878856 31.59375 42.62109375 C34.53077542 47.26837924 37.50381537 51.8906989 40.5 56.5 C45.31377598 63.91260793 50.06067098 71.36677971 54.79541016 78.83007812 C57.99482052 83.86815926 61.22093367 88.88633028 64.48974609 93.87963867 C79.87462225 117.42874855 90.17175442 140.09927729 84.54663086 168.94165039 C80.12690002 188.74271749 68.13315136 206.69275613 51.125 217.75 C31.59387894 229.9196899 9.88898119 234.26944567 -12.72265625 229.25 C-19.3578536 227.4431872 -25.74275566 224.82076273 -32.14990234 222.34570312 C-69.56718247 207.93487397 -109.24607748 209.23038446 -146.375 223.625 C-169.48952119 232.58363526 -191.58572851 234.07176284 -214.94921875 224.4296875 C-233.70876602 215.63840158 -248.03360958 199.98588987 -256 181 C-263.07685804 160.34844153 -263.21211954 139.42274993 -254.57421875 119.20703125 C-250.29017077 110.4794794 -245.3761742 102.28013161 -240 94.1875 C-238.67081971 92.16866314 -237.34272153 90.14911349 -236.015625 88.12890625 C-235.34724609 87.11199707 -234.67886719 86.09508789 -233.99023438 85.04736328 C-230.86794713 80.26664819 -227.80664016 75.44785912 -224.75 70.625 C-220.26451165 63.55263941 -215.75431957 56.49837388 -211.18481445 49.47998047 C-208.60760646 45.51323528 -206.06848764 41.52535888 -203.55859375 37.515625 C-187.30055189 11.58599709 -187.30055189 11.58599709 -176 1 C-175.21882813 0.21109375 -174.43765625 -0.5778125 -173.6328125 -1.390625 C-125.49556407 -49.09935194 -47.90385292 -45.24252776 0 0 Z " fill="#000000" transform="translate(325,249)"/>
<path d="M0 0 C2.52092612 1.95986634 4.92908846 3.99275446 7.3125 6.1171875 C7.99957031 6.72175781 8.68664062 7.32632813 9.39453125 7.94921875 C25.66686722 23.19450393 34.70645028 45.21300323 35.65625 67.2890625 C36.24173473 92.3648068 30.5769673 114.52504758 14.3125 134.1171875 C13.64154297 135.00664062 13.64154297 135.00664062 12.95703125 135.9140625 C2.63389837 149.11314149 -13.84669241 156.96624315 -30.06640625 159.68359375 C-49.30956563 161.98779083 -68.25450658 156.96111268 -83.6875 145.1171875 C-101.86652212 129.65808014 -113.55128235 108.05701403 -115.6875 84.1171875 C-117.09788342 57.84368128 -111.63589247 33.13707415 -94.0703125 12.68359375 C-69.5106033 -13.76842091 -30.57630138 -21.42118788 0 0 Z " fill="#000000" transform="translate(239.6875,43.8828125)"/>
<path d="M0 0 C2.48904571 2.18688538 4.82791638 4.44885632 7.13671875 6.82421875 C8.07064453 7.72720703 8.07064453 7.72720703 9.0234375 8.6484375 C22.99497746 23.12232496 27.68139019 44.01193879 27.34375 63.515625 C26.49085549 86.79493583 16.24974204 108.18340203 -0.30224609 124.38818359 C-14.69952264 137.63259721 -32.46390093 144.60570952 -52.10546875 144.1015625 C-68.55996435 142.88714546 -84.29030773 136.47213167 -95.38671875 123.984375 C-111.04479553 105.03604569 -115.87767839 83.96672527 -113.86328125 59.82421875 C-111.20251718 38.96498892 -100.70636866 17.97025978 -84.31005859 4.55322266 C-59.54157734 -14.38650375 -26.20312459 -19.91151487 0 0 Z " fill="#000000" transform="translate(397.86328125,84.17578125)"/>
<path d="M0 0 C3.04439007 2.67714967 5.9122111 5.49968234 8.76171875 8.3828125 C9.42945312 9.04023438 10.0971875 9.69765625 10.78515625 10.375 C25.11148382 25.47922771 31.37121799 47.34060549 31.01171875 67.7421875 C29.95028128 83.19937063 25.31278096 97.17619795 15.76171875 109.3828125 C15.01921875 110.4140625 14.27671875 111.4453125 13.51171875 112.5078125 C2.33041604 124.19735624 -12.03632395 130.26264203 -27.97265625 131.34375 C-47.97632515 131.58302834 -65.26101837 123.11005522 -79.37890625 109.3984375 C-95.4530893 92.97996137 -101.9199812 71.6300621 -101.70874023 49.1809082 C-101.17366245 31.20657516 -94.87066003 14.80421202 -82.0546875 2.0078125 C-59.39411514 -19.11272096 -23.94641726 -20.05793039 0 0 Z " fill="#000000" transform="translate(101.23828125,144.6171875)"/>
<path d="M0 0 C11.4416476 9.62891638 18.76142571 23.47652555 21.35546875 38.1171875 C22.96994047 61.21860762 18.97656243 82.87340724 3.46875 100.8203125 C2.77136719 101.57828125 2.07398438 102.33625 1.35546875 103.1171875 C0.60652344 103.95765625 -0.14242187 104.798125 -0.9140625 105.6640625 C-14.68657556 120.34880987 -34.02819514 128.80470499 -54.14453125 129.4921875 C-71.5192038 128.84868111 -86.66940793 122.84343863 -98.64453125 110.1171875 C-110.13460742 97.29786723 -115.08624972 81.72020652 -114.8515625 64.609375 C-113.50256039 41.85450916 -104.18856656 22.50503021 -87.65625 6.6875 C-62.78067612 -14.5422375 -27.40436378 -19.51093552 0 0 Z " fill="#000000" transform="translate(490.64453125,214.8828125)"/>
</svg>
